#N canvas 618 175 868 854 16;
#X obj 80 585 openda_bus;
#X obj 50 357 mtof~;
#X obj 52 326 +~ 90;
#X obj 102 515 *~;
#X obj 135 346 vline~;
#X obj 128 388 *~;
#X obj 51 388 osc~;
#X obj 170 267 t b f f;
#X obj 14 192 + 12;
#X obj 13 219 mtof;
#X obj 34 422 clip~ -0.1 0.1;
#X obj 14 250 phasor~ 700;
#X obj 17 282 *~ 3;
#X obj 337 395 noise~;
#X obj 221 384 vline~;
#X obj 213 426 *~;
#X obj 283 663 *~;
#X obj 274 732 openda_bus;
#X obj 371 454 mtof;
#X obj 328 556 vcf~;
#X obj 350 496 sig~;
#X msg 370 426 50;
#X msg 440 472 2;
#X msg 714 401 0.5;
#X obj 471 404 vline~;
#X msg 475 374 0 20 \, 3 5 20 \, 0 200 50;
#X obj 571 484 vline~;
#X obj 541 613 *~;
#X obj 528 669 openda_bus;
#X obj 602 316 t b f b;
#X obj 571 533 *~;
#X obj 577 421 sqrt;
#X msg 595 245 40;
#X msg 664 246 60;
#X msg 729 258 90;
#X obj 501 480 *~;
#X msg 225 354 0 20 \, 3 5 20 \, 0 20 50;
#X obj 171 25 bng 15 250 50 0 empty empty empty 17 7 0 10 -262144 -1
-1;
#X msg 237 10 stop;
#X obj 302 157 del 200;
#X msg 282 202 79;
#X msg 139 316 0 20 \, 3 20 20 \, 0 50 80;
#X obj 168 83 metro 500;
#X obj 196 146 del 250;
#X obj 583 573 osc~;
#X msg 122 167 50;
#X msg 218 197 55;
#X msg 570 455 0 20 \, \$1 5 20 \, 5 20 40;
#X connect 1 0 6 0;
#X connect 2 0 1 0;
#X connect 3 0 0 0;
#X connect 4 0 5 0;
#X connect 4 0 5 1;
#X connect 5 0 3 1;
#X connect 6 0 10 0;
#X connect 7 0 41 0;
#X connect 7 1 2 1;
#X connect 7 2 8 0;
#X connect 8 0 9 0;
#X connect 9 0 11 0;
#X connect 10 0 3 0;
#X connect 11 0 12 0;
#X connect 12 0 2 0;
#X connect 13 0 19 0;
#X connect 14 0 15 0;
#X connect 14 0 15 1;
#X connect 15 0 16 0;
#X connect 16 0 17 0;
#X connect 18 0 20 0;
#X connect 19 0 16 1;
#X connect 20 0 19 1;
#X connect 21 0 18 0;
#X connect 22 0 19 2;
#X connect 24 0 35 0;
#X connect 24 0 35 1;
#X connect 25 0 24 0;
#X connect 26 0 30 0;
#X connect 26 0 30 1;
#X connect 27 0 28 0;
#X connect 29 0 25 0;
#X connect 29 1 31 0;
#X connect 29 2 23 0;
#X connect 30 0 44 0;
#X connect 31 0 47 0;
#X connect 32 0 29 0;
#X connect 33 0 29 0;
#X connect 35 0 27 0;
#X connect 36 0 14 0;
#X connect 37 0 42 0;
#X connect 38 0 42 0;
#X connect 39 0 40 0;
#X connect 40 0 7 0;
#X connect 41 0 4 0;
#X connect 42 0 36 0;
#X connect 42 0 43 0;
#X connect 42 0 33 0;
#X connect 42 0 45 0;
#X connect 43 0 46 0;
#X connect 44 0 27 1;
#X connect 45 0 7 0;
#X connect 46 0 7 0;
#X connect 47 0 26 0;
