#N canvas 712 330 683 510 16;
#X obj 80 405 openda_bus;
#X obj 50 177 mtof~;
#X obj 52 146 +~ 90;
#X obj 102 335 *~;
#X obj 135 166 vline~;
#X obj 128 208 *~;
#X obj 51 208 osc~;
#X obj 161 71 t b f f;
#X obj 14 12 + 12;
#X obj 13 39 mtof;
#X obj 34 242 clip~ -0.1 0.1;
#X obj 14 70 phasor~ 700;
#X msg 85 19 35;
#X msg 159 19 37;
#X msg 254 19 38;
#X msg 319 35 40;
#X msg 139 136 0 20 \, 3 20 20 \, 0 200 500;
#X obj 17 102 *~ 3;
#X connect 1 0 6 0;
#X connect 2 0 1 0;
#X connect 3 0 0 0;
#X connect 4 0 5 0;
#X connect 4 0 5 1;
#X connect 5 0 3 1;
#X connect 6 0 10 0;
#X connect 7 0 16 0;
#X connect 7 1 2 1;
#X connect 7 2 8 0;
#X connect 8 0 9 0;
#X connect 9 0 11 0;
#X connect 10 0 3 0;
#X connect 11 0 17 0;
#X connect 12 0 7 0;
#X connect 13 0 7 0;
#X connect 14 0 7 0;
#X connect 15 0 7 0;
#X connect 16 0 4 0;
#X connect 17 0 2 0;
