#N canvas 716 275 542 580 16;
#X obj 111 133 inlet note;
#X obj 238 127 inlet decay;
#X obj 111 164 t f b;
#X obj 85 316 osc~;
#X obj 84 270 +~;
#X obj 111 234 mtof;
#X obj 83 63 osc~ 8;
#X obj 84 95 *~ 3;
#X obj 158 204 f 100;
#X obj 238 176 * 1000;
#X msg 158 272 1 12 0 \, 0 \$1 12;
#X obj 158 303 vline~;
#X obj 159 338 *~;
#X obj 86 384 clip~ -0.1 0.1;
#X obj 86 442 *~ 2;
#X obj 86 470 *~;
#X obj 85 499 outlet~;
#X connect 0 0 2 0;
#X connect 1 0 9 0;
#X connect 2 0 5 0;
#X connect 2 1 8 0;
#X connect 3 0 13 0;
#X connect 4 0 3 0;
#X connect 5 0 4 1;
#X connect 6 0 7 0;
#X connect 7 0 4 0;
#X connect 8 0 10 0;
#X connect 9 0 8 1;
#X connect 10 0 11 0;
#X connect 11 0 12 1;
#X connect 11 0 12 0;
#X connect 12 0 15 1;
#X connect 13 0 14 0;
#X connect 14 0 15 0;
#X connect 15 0 16 0;
