#N canvas 648 121 963 847 16;
#X obj 48 349 oggread~;
#X obj 48 201 loadbang;
#X msg 48 274 open \$1;
#X obj 341 33 inlet;
#X obj 47 487 *~ 0.5;
#X obj 73 453 *~ 0.5;
#X obj 47 531 +~;
#X obj 47 575 outlet~;
#X obj 48 238 symbol \$1;
#X obj 408 642 delay 1 1 sec;
#X obj 408 796 s \$0-feedback;
#X obj 363 76 r \$0-feedback;
#X obj 66 312 r \$0-action;
#X obj 341 123 route play pause stop segment loop;
#X obj 370 425 f 0;
#X text 81 47 Start position;
#X obj 543 163 unpack;
#X obj 341 574 f -1;
#X text 82 85 Length;
#X obj 341 609 moses 0;
#X obj 341 278 t b b b b;
#X msg 408 760 play;
#X msg 428 316 stop;
#X obj 460 497 s \$0-action;
#X msg 370 463 seek \$1;
#X floatatom 25 47 5 0 0 0 - #0-origin -, f 5;
#X floatatom 25 85 5 0 0 0 - #0-length -, f 5;
#X floatatom 25 125 5 0 0 0 - #0-position -, f 5;
#X obj 475 217 t b;
#X msg 399 352 start;
#X text 81 125 Current position;
#X obj 99 407 send \$0-position;
#X obj 543 232 send \$0-origin;
#X obj 600 203 send \$0-length;
#X obj 397 388 r \$0-origin;
#X obj 378 538 r \$0-length;
#X obj 455 719 outlet;
#X obj 408 683 t b b;
#X connect 0 0 4 0;
#X connect 0 1 5 0;
#X connect 0 2 31 0;
#X connect 1 0 8 0;
#X connect 2 0 0 0;
#X connect 3 0 13 0;
#X connect 4 0 6 0;
#X connect 5 0 6 1;
#X connect 6 0 7 0;
#X connect 8 0 2 0;
#X connect 9 0 37 0;
#X connect 11 0 13 0;
#X connect 12 0 0 0;
#X connect 13 0 20 0;
#X connect 13 2 28 0;
#X connect 13 3 16 0;
#X connect 14 0 24 0;
#X connect 16 0 32 0;
#X connect 16 1 33 0;
#X connect 17 0 19 0;
#X connect 19 1 9 0;
#X connect 20 0 17 0;
#X connect 20 1 14 0;
#X connect 20 2 29 0;
#X connect 20 3 22 0;
#X connect 21 0 10 0;
#X connect 22 0 23 0;
#X connect 22 0 9 0;
#X connect 24 0 23 0;
#X connect 28 0 22 0;
#X connect 29 0 23 0;
#X connect 34 0 14 1;
#X connect 35 0 17 1;
#X connect 37 0 21 0;
#X connect 37 1 36 0;
#X coords 0 -1 1 1 230 140 1 16 16;
