#N canvas 293 589 364 392 10;
#X obj 194 151 oggread~;
#X obj 194 33 loadbang;
#X msg 194 106 open \$1;
#X obj 28 42 inlet;
#X obj 193 249 *~ 0.5;
#X obj 209 212 *~ 0.5;
#X obj 193 293 +~;
#X obj 193 337 outlet~;
#X obj 194 70 symbol \$1;
#X obj 28 77 t a a;
#X msg 89 294 start;
#X obj 28 195 f \$2;
#X obj 28 132 route start;
#X obj 28 167 t b;
#X obj 28 241 delay;
#X connect 0 0 4 0;
#X connect 0 1 5 0;
#X connect 1 0 8 0;
#X connect 2 0 0 0;
#X connect 3 0 9 0;
#X connect 4 0 6 0;
#X connect 5 0 6 1;
#X connect 6 0 7 0;
#X connect 8 0 2 0;
#X connect 9 0 12 0;
#X connect 9 1 0 0;
#X connect 10 0 9 0;
#X connect 11 0 14 0;
#X connect 12 0 13 0;
#X connect 12 1 14 0;
#X connect 13 0 11 0;
#X connect 14 0 10 0;
#X coords 0 392 1 391 160 100 0;
