#N canvas 767 397 843 362 16;
#X obj 484 100 tabwrite~ \$1-output;
#X obj 331 41 inlet~;
#X obj 492 62 receive \$1-input;
#X obj 484 27 bang~;
#X obj 393 147 dac~;
#X obj 10 20 cnv 15 256 128 empty empty empty 20 12 0 14 -34543 -66577
0;
#N canvas 0 50 450 250 (subpatch) 0;
#X array \$1-output 64 float 4;
#X coords 0 1 63 -1 128 64 2 0 0;
#X restore 10 84 graph;
#X text 88 30 ODA PANEL;
#X connect 1 0 0 0;
#X connect 1 0 4 0;
#X connect 1 0 4 1;
#X connect 2 0 0 0;
#X connect 3 0 0 0;
#X coords 0 -1 1 1 256 128 2 10 20;
