#N canvas 551 372 357 330 16;
#X obj 20 228 throw~ openda_mainbus;
#X obj 22 26 inlet~;
#X obj 21 188 *~;
#X obj 48 155 line;
#X msg 48 122 \$1 100;
#X obj 154 10 inlet;
#X obj 48 64 cnv 15 139 54 empty empty empty 33 15 0 14 -33289 -1 0
;
#X obj 53 65 cnv 32 133 48 empty empty Audio_Bus 30 15 1 14 -128992
-1 0;
#X obj 59 90 hsl 120 20 0.01 1 1 1 empty empty empty -2 -8 0 10 -162280
-1 -1 6350 1;
#X connect 1 0 2 0;
#X connect 2 0 0 0;
#X connect 3 0 2 1;
#X connect 4 0 3 0;
#X connect 5 0 8 0;
#X connect 8 0 4 0;
#X coords 0 -1 1 1 139 54 2 48 64;
