#N canvas 92 279 914 615 16;
#X obj 54 407 inlet~ amp;
#X obj 30 536 outlet~ signal;
#X obj 215 149 inlet set;
#X obj 215 186 route freq amp phase;
#X obj 31 318 +~;
#X obj 215 327 s \$0-freq;
#X obj 280 297 s \$0-amp;
#X obj 346 248 s \$0-phase;
#X obj 85 254 r \$0-freq;
#X obj 29 499 *~;
#X obj 55 469 +~;
#X obj 82 441 r \$0-amp;
#X obj 67 344 r \$0-phase;
#X obj 501 150 cnv 15 320 300 empty empty empty 33 15 0 14 -33289 -1
0;
#X obj 506 151 cnv 32 314 294 empty empty OSCILLATOR 80 36 1 24 -54692
-1 0;
#X obj 609 244 vsl 32 155 -8 8 0 0 \$0-osc empty OSC 0 -12 1 16 -144077
-1 -1 7800 0;
#X obj 541 242 vradio 32 1 0 5 empty empty RNG -2 -10 1 16 -144077
-1 -1 0;
#X obj 541 532 pow;
#X obj 541 464 t b f;
#X obj 588 492 + 1;
#X msg 541 492 2;
#X obj 541 560 s \$0-rng;
#X floatatom 537 414 4 0 0 0 - #0-rng -, f 4;
#X text 527 246 2;
#X text 527 279 4;
#X text 527 313 8;
#X text 517 343 16;
#X floatatom 605 413 4 0 0 0 - #0-osc -, f 4;
#X obj 541 109 loadbang;
#X obj 58 289 +;
#X obj 58 224 *;
#X obj 85 194 r \$0-rng;
#X obj 58 163 r \$0-osc;
#X obj 30 113 inlet~ fm;
#X text 517 374 32;
#X text 595 313 0;
#X text 585 241 +8;
#X text 585 381 -8;
#X obj 679 244 vsl 32 155 0.01 1 1 0 \$0-amp empty VOL 0 -12 1 16 -144077
-1 -1 13300 0;
#X floatatom 675 413 4 0 0 1 - #0-amp -, f 4;
#X text 665 381 0;
#X text 665 241 1;
#X obj 30 378 phasor~;
#X connect 0 0 10 0;
#X connect 2 0 3 0;
#X connect 3 0 5 0;
#X connect 3 1 6 0;
#X connect 3 2 7 0;
#X connect 4 0 42 0;
#X connect 8 0 29 1;
#X connect 9 0 1 0;
#X connect 10 0 9 1;
#X connect 11 0 10 1;
#X connect 12 0 42 1;
#X connect 16 0 18 0;
#X connect 17 0 21 0;
#X connect 18 0 20 0;
#X connect 18 1 19 0;
#X connect 19 0 17 1;
#X connect 20 0 17 0;
#X connect 28 0 16 0;
#X connect 28 0 15 0;
#X connect 28 0 38 0;
#X connect 29 0 4 1;
#X connect 30 0 29 0;
#X connect 31 0 30 1;
#X connect 32 0 30 0;
#X connect 33 0 4 0;
#X connect 42 0 9 0;
#X coords 0 -1 1 1 321 301 2 500 150;
