#N canvas 178 245 711 581 16;
#X msg 48 128 bang;
#X obj 48 481 setsize display v;
#X msg 48 449 64;
#X obj 95 274 pointer;
#X obj 48 380 append display x y c;
#X obj 95 199 symbol \$1;
#X msg 95 240 traverse \$1 \, bang;
#X obj 48 320 list \$2 \$3 \$4;
#X msg 48 352 \$1 \$2 \$3;
#X obj 304 191 t b b;
#X obj 588 312 pointer;
#X obj 421 362 element display v;
#X obj 304 219 f 0;
#X obj 304 284 t f f f;
#X obj 345 219 + 1;
#X obj 304 367 * 100;
#X obj 304 251 moses 64;
#X msg 375 187 0;
#X obj 304 397 set sample w;
#X obj 304 329 tabread \$5;
#X obj 48 413 t b p p;
#X obj 48 28 inlet command;
#X obj 48 62 route load update;
#X obj 48 156 t b b;
#X connect 0 0 23 0;
#X connect 2 0 1 0;
#X connect 3 0 4 3;
#X connect 4 0 20 0;
#X connect 5 0 6 0;
#X connect 6 0 3 0;
#X connect 7 0 8 0;
#X connect 8 0 4 0;
#X connect 9 0 12 0;
#X connect 9 1 10 0;
#X connect 10 0 11 1;
#X connect 11 0 18 1;
#X connect 12 0 16 0;
#X connect 13 0 19 0;
#X connect 13 1 11 0;
#X connect 13 2 14 0;
#X connect 14 0 12 1;
#X connect 15 0 18 0;
#X connect 16 0 13 0;
#X connect 16 1 17 0;
#X connect 17 0 12 1;
#X connect 19 0 15 0;
#X connect 20 0 2 0;
#X connect 20 1 1 1;
#X connect 20 2 10 1;
#X connect 21 0 22 0;
#X connect 22 0 0 0;
#X connect 22 1 9 0;
#X connect 23 0 7 0;
#X connect 23 1 5 0;
