#N canvas 104 242 910 700 16;
#X obj 232 519 inlet~ amp;
#X obj 206 636 outlet~ signal;
#X obj 275 21 inlet set;
#X obj 31 388 +~;
#X obj 275 183 s \$0-freq;
#X obj 85 270 r \$0-freq;
#X obj 207 601 *~;
#X obj 233 574 +~;
#X obj 551 151 cnv 15 320 300 empty empty empty 33 15 0 14 -33289 -1
0;
#X obj 557 151 cnv 32 314 294 empty empty OSCILLATOR 150 36 1 24 -54692
-1 0;
#X obj 659 214 vsl 32 188 -8 8 0 0 \$0-osc empty OSC 0 -12 1 16 -144077
-1 -1 9300 1;
#X obj 591 213 vradio 32 1 0 6 empty empty RNG -2 -10 1 16 -144077
-1 -1 4;
#X obj 591 533 pow;
#X obj 591 465 t b f;
#X obj 638 493 + 1;
#X msg 591 493 2;
#X obj 638 595 s \$0-rng;
#X floatatom 587 415 4 0 0 0 - #0-rng -, f 4;
#X text 577 217 2;
#X text 577 250 4;
#X text 577 284 8;
#X text 567 314 16;
#X floatatom 655 414 4 0 0 0 - #0-osc -, f 4;
#X obj 591 109 loadbang;
#X obj 85 326 r \$0-rng;
#X obj 58 54 r \$0-osc;
#X obj 30 23 inlet~ fm;
#X text 567 345 32;
#X text 645 297 0;
#X text 635 212 +8;
#X text 635 382 -8;
#X obj 829 245 vsl 32 155 0.01 1 1 0 \$0-vol empty VOL 0 -12 1 16 -144077
-1 -1 15400 1;
#X floatatom 825 414 4 0 0 1 - #0-amp -, f 4;
#X text 815 382 0;
#X text 815 242 1;
#X obj 697 17 loadbang;
#X obj 697 99 s \$0-freq;
#X obj 58 356 /;
#X obj 58 185 t b f;
#X msg 58 213 2;
#X obj 58 241 pow;
#X obj 58 299 *;
#X obj 58 152 / 8;
#X obj 31 416 send~ \$0-fm;
#N canvas 3 93 450 300 phasor 0;
#X obj 132 131 phasor~;
#X obj 133 102 receive~ \$0-fm;
#X obj 132 159 send~ \$0-phasor;
#X connect 0 0 2 0;
#X connect 1 0 0 0;
#X restore 29 472 pd phasor;
#X obj 206 490 receive~ \$0-phasor;
#N canvas 3 87 450 300 sine 0;
#X obj 133 102 receive~ \$0-fm;
#X obj 132 131 osc~;
#X obj 132 159 send~ \$0-sine;
#X connect 0 0 1 0;
#X connect 1 0 2 0;
#X restore 28 505 pd sine;
#X msg 206 461 set \$2-\$1;
#X obj 206 433 list \$0;
#X msg 206 284 sine;
#X msg 235 315 phasor;
#X msg 158 71 bang;
#X obj 158 37 r \$0-reset;
#X obj 591 629 s \$0-reset;
#X obj 591 561 t b f;
#X obj 58 112 f;
#N canvas 3 90 450 375 tri 0;
#X obj 89 101 phasor~;
#X obj 189 101 phasor~;
#X obj 189 67 *~ -1;
#X obj 89 136 *~ 2;
#X obj 90 166 -~ 1;
#X obj 90 206 clip~ 0 1;
#X obj 118 248 +~;
#X obj 189 136 *~ 2;
#X obj 190 166 -~ 1;
#X obj 190 206 clip~ 0 1;
#X obj 88 10 receive~ \$0-fm;
#X obj 118 285 send~ \$0-tri;
#X msg 256 50 0;
#X obj 256 17 loadbang;
#X connect 0 0 3 0;
#X connect 1 0 7 0;
#X connect 2 0 1 0;
#X connect 3 0 4 0;
#X connect 4 0 5 0;
#X connect 5 0 6 0;
#X connect 6 0 11 0;
#X connect 7 0 8 0;
#X connect 8 0 9 0;
#X connect 9 0 6 1;
#X connect 10 0 0 0;
#X connect 10 0 2 0;
#X connect 12 0 0 1;
#X connect 12 0 1 1;
#X connect 13 0 12 0;
#X restore 28 539 pd tri;
#X msg 264 345 tri;
#X obj 761 243 vradio 32 1 0 5 \$0-shape empty SHAPE -12 -10 1 16 -144077
-1 -1 3;
#X text 717 247 sine;
#X text 697 280 phasor;
#X text 727 314 tri;
#X text 697 344 square;
#X text 717 375 step;
#X obj 206 224 r \$0-shape;
#X obj 206 252 route 0 1 2 3 4;
#N canvas 256 371 450 375 square 0;
#X obj 89 141 phasor~;
#X obj 189 141 phasor~;
#X obj 189 107 *~ -1;
#X obj 118 198 +~;
#X obj 88 50 receive~ \$0-fm;
#X msg 256 90 0;
#X obj 292 20 loadbang;
#X msg 319 86 0.5;
#X obj 118 285 send~ \$0-square;
#X msg 292 48 bang;
#X obj 118 238 -~ 0.5;
#X connect 0 0 3 0;
#X connect 1 0 3 1;
#X connect 2 0 1 0;
#X connect 3 0 10 0;
#X connect 4 0 0 0;
#X connect 4 0 2 0;
#X connect 5 0 0 1;
#X connect 6 0 9 0;
#X connect 7 0 1 1;
#X connect 9 0 7 0;
#X connect 9 0 5 0;
#X connect 10 0 8 0;
#X restore 28 569 pd square;
#X msg 294 372 square;
#N canvas 256 377 450 375 step 0;
#X obj 89 141 phasor~;
#X obj 189 141 phasor~;
#X obj 189 107 *~ -1;
#X obj 118 198 +~;
#X obj 88 50 receive~ \$0-fm;
#X msg 256 90 0;
#X obj 292 20 loadbang;
#X msg 292 48 bang;
#X obj 118 285 send~ \$0-step;
#X msg 319 86 0.75;
#X obj 118 238 -~ 0.75;
#X connect 0 0 3 0;
#X connect 1 0 3 1;
#X connect 2 0 1 0;
#X connect 3 0 10 0;
#X connect 4 0 0 0;
#X connect 4 0 2 0;
#X connect 5 0 0 1;
#X connect 6 0 7 0;
#X connect 7 0 9 0;
#X connect 7 0 5 0;
#X connect 9 0 1 1;
#X connect 10 0 8 0;
#X restore 28 599 pd step;
#X msg 323 402 step;
#X obj 260 547 r \$0-vol;
#X obj 275 58 route freq rng osc shape vol;
#X obj 330 148 s \$0-rng;
#X obj 385 110 s \$0-osc;
#X obj 441 216 s \$0-shape;
#X obj 496 108 s \$0-vol;
#X text 557 376 LOW;
#X msg 697 45 60;
#X obj 697 73 mtof;
#X connect 0 0 7 0;
#X connect 2 0 71 0;
#X connect 2 0 51 0;
#X connect 3 0 43 0;
#X connect 5 0 41 1;
#X connect 6 0 1 0;
#X connect 7 0 6 1;
#X connect 11 0 13 0;
#X connect 12 0 54 0;
#X connect 13 0 15 0;
#X connect 13 1 14 0;
#X connect 14 0 12 1;
#X connect 15 0 12 0;
#X connect 23 0 11 0;
#X connect 23 0 10 0;
#X connect 23 0 31 0;
#X connect 24 0 37 1;
#X connect 25 0 55 0;
#X connect 26 0 3 0;
#X connect 35 0 77 0;
#X connect 37 0 3 1;
#X connect 38 0 39 0;
#X connect 38 1 40 1;
#X connect 39 0 40 0;
#X connect 40 0 41 0;
#X connect 41 0 37 0;
#X connect 42 0 38 0;
#X connect 45 0 6 0;
#X connect 47 0 45 0;
#X connect 48 0 47 0;
#X connect 49 0 48 0;
#X connect 50 0 48 0;
#X connect 51 0 55 0;
#X connect 52 0 51 0;
#X connect 54 0 53 0;
#X connect 54 1 16 0;
#X connect 55 0 42 0;
#X connect 57 0 48 0;
#X connect 64 0 65 0;
#X connect 65 0 49 0;
#X connect 65 1 50 0;
#X connect 65 2 57 0;
#X connect 65 3 67 0;
#X connect 65 4 69 0;
#X connect 67 0 48 0;
#X connect 69 0 48 0;
#X connect 70 0 7 1;
#X connect 71 0 4 0;
#X connect 71 1 72 0;
#X connect 71 2 73 0;
#X connect 71 3 74 0;
#X connect 71 4 75 0;
#X connect 77 0 78 0;
#X connect 78 0 36 0;
#X coords 0 -1 1 1 322 302 2 550 150;
