#N struct display float x float y float c float s array v sample;
#N struct sample float y;
#N canvas 29 607 450 345 16;
#X obj 22 21 cnv 15 400 172 empty empty OpenDA 128 36 1 32 -66577 -191407
0;
#X obj 22 193 cnv 15 400 128 empty empty empty 20 12 0 14 -99865 -66577
0;
#N canvas 177 341 954 597 buffer_out 0;
#N canvas 3 120 594 190 display-struct 0;
#X obj 19 35 struct display float x float y float c float s array v
sample;
#X obj 26 94 plot curve v c 3 0 0 s;
#X restore 27 22 pd display-struct;
#N canvas 129 395 450 300 display-elem 0;
#X obj 18 60 struct sample float y;
#X restore 27 60 pd display-elem;
#N canvas 3 99 450 300 dataDisplay 0;
#X scalar display 0 96 582 8 \; 0 \; 0 \; 0 \; 0 \; 0 \; 0 \; 0 \;
0 \; 0 \; 0 \; 0 \; 0 \; 0 \; 0 \; 0 \; 0 \; 0 \; 0 \; 0 \; 0 \; 0
\; 0 \; 0 \; 0 \; 0 \; 0 \; 0 \; 0 \; 0 \; 0 \; 0 \; 0 \; \;;
#X scalar display 0 32 852 4 \; 0 \; 0 \; 0 \; 0 \; 0 \; 0 \; 0 \;
0 \; 0 \; 0 \; 0 \; 0 \; 0 \; 0 \; 0 \; 0 \; 0 \; 0 \; 0 \; 0 \; 0
\; 0 \; 0 \; 0 \; 0 \; 0 \; 0 \; 0 \; 0 \; 0 \; 0 \; 0 \; 0 \; 0 \;
0 \; 0 \; 0 \; 0 \; 0 \; 0 \; 0 \; 0 \; 0 \; 0 \; 0 \; 0 \; 0 \; 0
\; 0 \; 0 \; 0 \; 0 \; 0 \; 0 \; 0 \; 0 \; 0 \; 0 \; 0 \; 0 \; 0 \;
0 \; 0 \; 0 \; \;;
#X coords 0 -1 255 126 400 128 2 100 100;
#X restore 16 196 pd dataDisplay;
#X obj 526 46 openda_core;
#X obj 475 101 dac~;
#N canvas 74 309 447 607 display-init 0;
#X obj 58 31 loadbang;
#X msg 58 59 bang;
#X obj 87 371 setsize display v;
#X msg 87 339 64;
#X obj 116 208 pointer;
#X msg 145 118 \; pd-dataDisplay clear;
#X obj 87 270 append display x y c;
#X msg 116 173 traverse pd-dataDisplay \, bang;
#X obj 58 87 t b b b b;
#X obj 58 546 setsize display v;
#X obj 58 478 t b p;
#X obj 58 445 append display x y c;
#X obj 87 303 t b p p;
#X msg 87 242 0 32 852;
#X msg 58 417 0 96 855;
#X msg 58 514 64;
#X connect 0 0 1 0;
#X connect 1 0 8 0;
#X connect 3 0 2 0;
#X connect 4 0 6 3;
#X connect 6 0 12 0;
#X connect 7 0 4 0;
#X connect 8 0 14 0;
#X connect 8 1 13 0;
#X connect 8 2 7 0;
#X connect 8 3 5 0;
#X connect 10 0 15 0;
#X connect 10 1 9 1;
#X connect 11 0 10 0;
#X connect 12 0 3 0;
#X connect 12 1 2 1;
#X connect 12 2 11 3;
#X connect 13 0 6 0;
#X connect 14 0 11 0;
#X connect 15 0 9 0;
#X restore 26 99 pd display-init;
#N canvas 3 90 628 347 display-update 0;
#X obj 18 62 t b b;
#X obj 302 153 pointer;
#X obj 135 233 element display v;
#X obj 18 90 f 0;
#X obj 18 155 t f f f;
#X obj 59 90 + 1;
#X obj 18 200 tabread openda_master;
#X msg 302 114 traverse pd-dataDisplay \, next;
#X obj 18 238 * 100;
#X obj 18 122 moses 64;
#X msg 89 58 0;
#X obj 18 268 set sample w;
#X obj 18 20 inlet bang;
#X connect 0 0 3 0;
#X connect 0 1 7 0;
#X connect 1 0 2 1;
#X connect 2 0 11 1;
#X connect 3 0 9 0;
#X connect 4 0 6 0;
#X connect 4 1 2 0;
#X connect 4 2 5 0;
#X connect 5 0 3 1;
#X connect 6 0 8 0;
#X connect 7 0 1 0;
#X connect 8 0 11 0;
#X connect 9 0 4 0;
#X connect 9 1 10 0;
#X connect 10 0 3 1;
#X connect 12 0 0 0;
#X restore 700 124 pd display-update;
#X obj 47 345 loadbang;
#X obj 343 374 r openda_plotcmd;
#X obj 47 530 s openda_plotcmd;
#X obj 47 407 t b b;
#X msg 94 445 \; pd-dataDisplay clear;
#X obj 633 83 t b b;
#X obj 633 194 s openda_plotcmd;
#X msg 47 377 bang;
#X obj 343 409 t a a;
#X msg 47 490 load;
#X msg 633 149 update;
#N canvas 202 466 450 300 spectre-control 0;
#X obj 49 82 inlet~ signal;
#X obj 50 141 rfft~;
#X obj 49 238 tabwrite~ spectre;
#X obj 171 129 bang~;
#X obj 78 29 block~ 64;
#X obj 49 191 expr~ sqrt($v1*$v1 +$v2*$v2)/16;
#X connect 0 0 1 0;
#X connect 1 0 5 0;
#X connect 1 1 5 1;
#X connect 3 0 2 0;
#X connect 5 0 2 0;
#X restore 526 259 pd spectre-control;
#X obj 390 446 openda_plot pd-dataDisplay 0 32 852 openda_master 64
;
#X obj 33 139 table spectre 32;
#X obj 343 492 openda_plot pd-dataDisplay 0 96 582 spectre 32;
#X connect 3 0 4 0;
#X connect 3 0 4 1;
#X connect 3 0 18 0;
#X connect 3 1 12 0;
#X connect 7 0 14 0;
#X connect 8 0 15 0;
#X connect 10 0 16 0;
#X connect 10 1 11 0;
#X connect 12 0 17 0;
#X connect 14 0 10 0;
#X connect 15 0 21 0;
#X connect 15 1 19 0;
#X connect 16 0 9 0;
#X connect 17 0 13 0;
#X coords 0 -1 1 1 400 128 2 16 196;
#X restore 22 193 pd buffer_out;
#X coords 0 345 1 344 85 60 0;
