#N canvas 711 409 914 462 10;
#X obj 141 40 mod 16;
#X obj 50 289 r \$0-synth;
#X obj 121 151 cnv 32 512 48 empty empty empty 20 12 1 16 -33289 -66577
0;
#X obj 127 151 cnv 36 506 42 empty empty Sequencer 6 20 1 16 -128992
-1 0;
#X obj 224 161 tgl 24 1 empty \$0-tgl-0 empty 17 7 0 10 -166441 -16853
-262144 0 1;
#X obj 191 213 spigot;
#X obj 191 237 s \$0-synth;
#X obj 249 161 tgl 24 1 empty \$0-tgl-1 empty 17 7 0 10 -166441 -16853
-262144 0 1;
#X obj 216 263 spigot;
#X obj 216 287 s \$0-synth;
#X obj 274 161 tgl 24 1 empty \$0-tgl-2 empty 17 7 0 10 -166441 -16853
-262144 0 1;
#X obj 241 313 spigot;
#X obj 241 337 s \$0-synth;
#X obj 299 161 tgl 24 1 empty \$0-tgl-3 empty 17 7 0 10 -166441 -16853
-262144 0 1;
#X obj 266 363 spigot;
#X obj 266 387 s \$0-synth;
#X obj 324 161 tgl 24 1 empty \$0-tgl-4 empty 17 7 0 10 -166441 -16853
-262144 0 1;
#X obj 291 213 spigot;
#X obj 291 237 s \$0-synth;
#X obj 349 161 tgl 24 1 empty \$0-tgl-5 empty 17 7 0 10 -166441 -16853
-262144 0 1;
#X obj 316 263 spigot;
#X obj 316 287 s \$0-synth;
#X obj 374 161 tgl 24 1 empty \$0-tgl-6 empty 17 7 0 10 -166441 -16853
-262144 0 1;
#X obj 341 313 spigot;
#X obj 341 337 s \$0-synth;
#X obj 399 161 tgl 24 1 empty \$0-tgl-7 empty 17 7 0 10 -166441 -16853
-262144 0 1;
#X obj 366 363 spigot;
#X obj 366 387 s \$0-synth;
#X obj 424 161 tgl 24 1 empty \$0-tgl-8 empty 17 7 0 10 -166441 -16853
-262144 0 1;
#X obj 391 213 spigot;
#X obj 391 237 s \$0-synth;
#X obj 449 161 tgl 24 1 empty \$0-tgl-9 empty 17 7 0 10 -166441 -16853
-262144 0 1;
#X obj 416 263 spigot;
#X obj 416 287 s \$0-synth;
#X obj 474 161 tgl 24 1 empty \$0-tgl-10 empty 17 7 0 10 -166441 -16853
-262144 0 1;
#X obj 441 313 spigot;
#X obj 441 337 s \$0-synth;
#X obj 499 161 tgl 24 1 empty \$0-tgl-11 empty 17 7 0 10 -166441 -16853
-262144 0 1;
#X obj 466 363 spigot;
#X obj 466 387 s \$0-synth;
#X obj 524 161 tgl 24 1 empty \$0-tgl-12 empty 17 7 0 10 -166441 -16853
-262144 0 1;
#X obj 491 213 spigot;
#X obj 491 237 s \$0-synth;
#X obj 549 161 tgl 24 1 empty \$0-tgl-13 empty 17 7 0 10 -166441 -16853
-262144 0 1;
#X obj 516 263 spigot;
#X obj 516 287 s \$0-synth;
#X obj 574 161 tgl 24 1 empty \$0-tgl-14 empty 17 7 0 10 -166441 -16853
-262144 0 1;
#X obj 541 313 spigot;
#X obj 541 337 s \$0-synth;
#X obj 599 161 tgl 24 1 empty \$0-tgl-15 empty 17 7 0 10 -166441 -16853
-262144 0 1;
#X obj 566 363 spigot;
#X obj 566 387 s \$0-synth;
#X obj 141 112 route 0 1 2 3 4 5 6 7 8 9 10 11 12 13 14 15;
#X obj 704 56 f \$0;
#X msg 705 103 \; \$1-tgl-0 color 1 \; \$1-tgl-1 color 1 \; \$1-tgl-2
color 1 \; \$1-tgl-3 color 1 \; \$1-tgl-4 color 1 \; \$1-tgl-5 color
1 \; \$1-tgl-6 color 1 \; \$1-tgl-7 color 1 \; \$1-tgl-8 color 1 \;
\$1-tgl-9 color 1 \; \$1-tgl-10 color 1 \; \$1-tgl-11 color 1 \; \$1-tgl-12
color 1 \; \$1-tgl-13 color 1 \; \$1-tgl-14 color 1 \; \$1-tgl-15 color
1 \;;
#X obj 481 43 t b f;
#X obj 485 67 pack \$0 0;
#X msg 487 96 \; \$1-tgl-\$2 color 16;
#X obj 690 15 bng 15 250 50 0 empty empty empty 17 7 0 10 -262144 -1
-1;
#X obj 702 338 print;
#X obj 141 12 inlet metro;
#X obj 141 64 t f b f;
#X obj 426 14 delay 100;
#X obj 50 319 outlet;
#X connect 0 0 61 0;
#X connect 1 0 63 0;
#X connect 4 0 5 1;
#X connect 5 0 6 0;
#X connect 7 0 8 1;
#X connect 8 0 9 0;
#X connect 10 0 11 1;
#X connect 11 0 12 0;
#X connect 13 0 14 1;
#X connect 14 0 15 0;
#X connect 16 0 17 1;
#X connect 17 0 18 0;
#X connect 19 0 20 1;
#X connect 20 0 21 0;
#X connect 22 0 23 1;
#X connect 23 0 24 0;
#X connect 25 0 26 1;
#X connect 26 0 27 0;
#X connect 28 0 29 1;
#X connect 29 0 30 0;
#X connect 31 0 32 1;
#X connect 32 0 33 0;
#X connect 34 0 35 1;
#X connect 35 0 36 0;
#X connect 37 0 38 1;
#X connect 38 0 39 0;
#X connect 40 0 41 1;
#X connect 41 0 42 0;
#X connect 43 0 44 1;
#X connect 44 0 45 0;
#X connect 46 0 47 1;
#X connect 47 0 48 0;
#X connect 49 0 50 1;
#X connect 50 0 51 0;
#X connect 52 0 5 0;
#X connect 52 1 8 0;
#X connect 52 2 11 0;
#X connect 52 3 14 0;
#X connect 52 4 17 0;
#X connect 52 5 20 0;
#X connect 52 6 23 0;
#X connect 52 7 26 0;
#X connect 52 8 29 0;
#X connect 52 9 32 0;
#X connect 52 10 35 0;
#X connect 52 11 38 0;
#X connect 52 12 41 0;
#X connect 52 13 44 0;
#X connect 52 14 47 0;
#X connect 52 15 50 0;
#X connect 53 0 54 0;
#X connect 54 0 59 0;
#X connect 55 0 56 0;
#X connect 55 1 56 1;
#X connect 56 0 57 0;
#X connect 58 0 53 0;
#X connect 60 0 0 0;
#X connect 61 0 52 0;
#X connect 61 1 62 0;
#X connect 61 2 55 0;
#X connect 62 0 53 0;
#X coords 0 -1 1 1 514 50 2 120 150;
