#N canvas 912 279 721 778 16;
#X obj 64 62 inlet~ signal;
#X obj 270 64 inlet set;
#X obj 64 659 vcf~;
#X obj 84 113 inlet~ mod;
#X obj 270 92 route freq offset q;
#X obj 270 220 s \$0-freq;
#X obj 83 230 +~;
#X obj 110 147 r \$0-freq;
#X msg 110 175 \$1 100;
#X obj 110 203 line;
#X obj 535 73 r \$0-offset;
#X obj 535 101 t b f;
#X msg 535 129 2;
#X obj 535 180 pow;
#X obj 535 208 s \$0-off;
#X obj 83 345 *~;
#X obj 110 260 r \$0-off;
#X msg 110 288 \$1 100;
#X obj 110 316 line;
#X msg 128 458 \$1 100;
#X obj 128 486 line;
#X obj 128 430 r \$0-q;
#X obj 332 183 s \$0-offset;
#X obj 394 134 s \$0-q;
#X obj 65 740 outlet~ bandpass;
#X obj 101 699 outlet~ lowpass;
#X obj 361 321 cnv 15 180 300 empty empty empty 33 15 0 14 -33289 -1
0;
#X obj 367 321 cnv 32 174 294 empty empty VC-FILTER 25 36 1 24 -54692
-1 0;
#X obj 474 410 vsl 32 160 0 10 0 0 \$0-q empty EMPH -8 -12 1 16 -144077
-1 -1 400 1;
#X floatatom 402 585 4 0 0 0 - #0-offset -, f 4;
#X floatatom 470 584 4 0 0 0 - #0-q -, f 4;
#X obj 404 410 vsl 32 160 -4 4 0 0 \$0-offset empty CUT 0 -12 1 16
-144077 -1 -1 8000 1;
#X text 390 480 0;
#X text 380 407 +4;
#X text 380 552 -4;
#X text 460 552 0;
#X text 450 408 10;
#X text 460 478 5;
#X obj 101 518 *~;
#X obj 101 565 snapshot~;
#X obj 197 519 bang~;
#X obj 102 388 inlet~ contour;
#X msg 101 593 \$1 2;
#X obj 101 621 line;
#X connect 0 0 2 0;
#X connect 1 0 4 0;
#X connect 2 0 24 0;
#X connect 2 1 25 0;
#X connect 3 0 6 0;
#X connect 4 0 5 0;
#X connect 4 1 22 0;
#X connect 4 2 23 0;
#X connect 6 0 15 0;
#X connect 7 0 8 0;
#X connect 8 0 9 0;
#X connect 9 0 6 1;
#X connect 10 0 11 0;
#X connect 11 0 12 0;
#X connect 11 1 13 1;
#X connect 12 0 13 0;
#X connect 13 0 14 0;
#X connect 15 0 2 1;
#X connect 16 0 17 0;
#X connect 17 0 18 0;
#X connect 18 0 15 1;
#X connect 19 0 20 0;
#X connect 20 0 38 1;
#X connect 21 0 19 0;
#X connect 38 0 39 0;
#X connect 39 0 42 0;
#X connect 40 0 39 0;
#X connect 41 0 38 0;
#X connect 42 0 43 0;
#X connect 43 0 2 2;
#X coords 0 -1 1 1 182 302 2 360 320;
