#N canvas 848 187 490 856 16;
#X obj 30 113 inlet~ freq;
#X obj 85 642 inlet~ amp;
#X obj 61 771 outlet~ signal;
#X obj 215 149 inlet set;
#X obj 215 186 route freq amp phase;
#X obj 31 198 +~;
#X obj 215 327 s \$0-freq;
#X obj 280 297 s \$0-amp;
#X obj 346 248 s \$0-phase;
#X obj 58 162 r \$0-freq;
#X obj 60 734 *~;
#X obj 86 704 +~;
#X obj 113 673 r \$0-amp;
#X obj 65 13 cnv 15 280 80 empty empty empty 33 15 0 14 -33289 -1 0
;
#X obj 71 13 cnv 32 274 74 empty empty Triangle 100 15 1 14 -128992
-1 0;
#X obj 140 40 hsl 120 20 40 4000 1 1 \$0-freq empty Frequency -64 10
1 10 -162280 -1 -1 6200 1;
#X obj 140 64 hsl 120 20 0.01 1 1 1 \$0-amp empty Amplitude -64 10
1 10 -162280 -1 -1 5950 1;
#X floatatom 267 40 5 0 0 1 Hz #0-freq -, f 5;
#X floatatom 267 64 5 0 0 1 - #0-amp -, f 5;
#X obj 97 210 r \$0-phase;
#X obj 30 323 phasor~;
#X obj 130 323 phasor~;
#X obj 130 289 *~ -1;
#X obj 30 358 *~ 2;
#X obj 31 388 -~ 1;
#X obj 31 428 clip~ 0 1;
#X obj 59 470 +~;
#X obj 130 358 *~ 2;
#X obj 131 388 -~ 1;
#X obj 131 428 clip~ 0 1;
#X obj 59 500 *~ 2;
#X obj 59 530 -~ 0.5;
#X connect 0 0 5 0;
#X connect 1 0 11 0;
#X connect 3 0 4 0;
#X connect 4 0 6 0;
#X connect 4 1 7 0;
#X connect 4 2 8 0;
#X connect 5 0 22 0;
#X connect 5 0 20 0;
#X connect 9 0 5 1;
#X connect 10 0 2 0;
#X connect 11 0 10 1;
#X connect 12 0 11 1;
#X connect 19 0 20 1;
#X connect 19 0 21 1;
#X connect 20 0 23 0;
#X connect 21 0 27 0;
#X connect 22 0 21 0;
#X connect 23 0 24 0;
#X connect 24 0 25 0;
#X connect 25 0 26 0;
#X connect 26 0 30 0;
#X connect 27 0 28 0;
#X connect 28 0 29 0;
#X connect 29 0 26 1;
#X connect 30 0 31 0;
#X connect 31 0 10 0;
#X coords 0 -1 1 1 282 82 2 64 12;
