#N canvas 13 512 483 466 16;
#X obj 41 99 loadbang;
#X obj 267 421 outlet~;
#X obj 48 349 table \$0-sample;
#X obj 266 376 tabplay~ \$0-sample;
#X obj 266 276 inlet command;
#X obj 266 304 route start stop;
#X msg 344 332 stop;
#X obj 17 17 cnv 32 400 48 empty empty empty 20 12 0 14 -33289 -66577
0;
#X obj 23 17 cnv 36 394 42 empty empty \$1 20 20 1 20 -54692 -1 0;
#X obj 41 292 soundfiler;
#X obj 41 262 list trim;
#X obj 371 30 bng 24 250 50 0 empty empty empty 17 7 0 10 -262144 -1
-1;
#X floatatom 41 320 5 0 0 0 - - -, f 5;
#X obj 41 204 list append \$0-sample;
#X obj 41 150 symbol \$1;
#X obj 41 232 list prepend read -resize;
#X connect 0 0 14 0;
#X connect 3 0 1 0;
#X connect 4 0 5 0;
#X connect 5 0 3 0;
#X connect 5 1 6 0;
#X connect 6 0 3 0;
#X connect 9 0 12 0;
#X connect 10 0 9 0;
#X connect 11 0 14 0;
#X connect 13 0 15 0;
#X connect 14 0 13 0;
#X connect 15 0 10 0;
#X coords 0 -1 1 1 402 50 1 16 16;
