#N canvas 870 248 847 668 16;
#X obj 54 18 inlet command;
#X obj 402 357 inlet set;
#X obj 54 46 route on off;
#X obj 54 539 vline~;
#X obj 402 593 s \$0-atk;
#X obj 453 563 s \$0-del;
#X obj 504 535 s \$0-sus;
#X obj 556 506 s \$0-rel;
#X obj 128 362 list;
#X obj 91 392 list;
#X obj 212 266 r \$0-rel;
#X obj 175 227 r \$0-sus;
#X obj 138 194 r \$0-del;
#X obj 101 155 r \$0-atk;
#X obj 54 452 list trim;
#X obj 402 385 route atk del sus rel auto;
#X obj 607 468 s \$0-auto;
#X obj 607 433 tgl 24 0 empty empty empty 17 7 0 10 -262144 -1 -1 1
1;
#X obj 54 75 t b b;
#X obj 54 121 t b b b b;
#X obj 91 244 f 100;
#X obj 128 284 f 0.5;
#X obj 165 315 f 100;
#X obj 54 209 f 100;
#X obj 54 424 list;
#X msg 54 485 1 \$1 \, \$3 \$2 \$1;
#X obj 291 116 spigot;
#X obj 348 85 r \$0-auto;
#X obj 271 338 f 100;
#X msg 271 366 0 \$1;
#X obj 378 158 r \$0-rel;
#X obj 291 214 delay 100;
#X obj 54 567 outlet~ signal;
#X obj 481 31 cnv 15 300 300 empty empty empty 33 15 0 14 -33289 -1
0;
#X obj 486 32 cnv 32 294 294 empty empty ENVELOPE 80 36 1 24 -54692
-1 0;
#X floatatom 512 295 5 0 0 0 - #0-atk -, f 5;
#X floatatom 650 294 5 0 0 0 - #0-sus -, f 5;
#X obj 521 125 vsl 32 155 1 10000 1 0 \$0-atk empty ATK 0 -12 1 16
-144077 -1 -1 11600 0;
#X text 487 127 10s;
#X text 497 153 1s;
#X text 497 262 0s;
#X obj 659 125 vsl 32 155 0 1 0 0 \$0-sus empty SUS 0 -12 1 16 -144077
-1 -1 10900 0;
#X text 645 264 0;
#X floatatom 582 295 5 0 0 0 - #0-del -, f 5;
#X obj 591 125 vsl 32 155 1 10000 1 0 \$0-del empty DEL 0 -12 1 16
-144077 -1 -1 8100 0;
#X text 557 127 10s;
#X text 567 153 1s;
#X text 567 262 0s;
#X floatatom 723 295 5 0 0 0 - #0-rel -, f 5;
#X obj 731 125 vsl 32 155 1 10000 1 0 \$0-rel empty REL 0 -12 1 16
-144077 -1 -1 7800 0;
#X text 697 127 10s;
#X text 707 153 1s;
#X text 707 262 0s;
#X text 645 122 1;
#X connect 0 0 2 0;
#X connect 1 0 15 0;
#X connect 2 0 18 0;
#X connect 2 1 28 0;
#X connect 3 0 32 0;
#X connect 8 0 9 1;
#X connect 9 0 24 1;
#X connect 10 0 22 1;
#X connect 10 0 28 1;
#X connect 11 0 21 1;
#X connect 12 0 20 1;
#X connect 13 0 23 1;
#X connect 14 0 25 0;
#X connect 15 0 4 0;
#X connect 15 1 5 0;
#X connect 15 2 6 0;
#X connect 15 3 7 0;
#X connect 15 4 17 0;
#X connect 17 0 16 0;
#X connect 18 0 19 0;
#X connect 18 1 26 0;
#X connect 19 0 23 0;
#X connect 19 1 20 0;
#X connect 19 2 21 0;
#X connect 19 3 22 0;
#X connect 20 0 9 0;
#X connect 21 0 8 0;
#X connect 22 0 8 1;
#X connect 23 0 24 0;
#X connect 24 0 14 0;
#X connect 25 0 3 0;
#X connect 26 0 31 0;
#X connect 27 0 26 1;
#X connect 28 0 29 0;
#X connect 29 0 3 0;
#X connect 30 0 31 1;
#X connect 31 0 28 0;
#X coords 0 -1 1 1 302 302 2 480 30;
