#N canvas 547 308 711 581 16;
#X msg 48 128 bang;
#X obj 48 541 setsize display v;
#X obj 115 274 pointer;
#X obj 115 199 symbol \$1;
#X msg 115 240 traverse \$1 \, bang;
#X obj 48 380 list \$2 \$3 \$4;
#X obj 304 191 t b b;
#X obj 588 312 pointer;
#X obj 421 362 element display v;
#X obj 304 219 f 0;
#X obj 304 284 t f f f;
#X obj 345 219 + 1;
#X msg 375 187 0;
#X obj 304 329 tabread \$5;
#X obj 48 473 t b p p;
#X obj 48 28 inlet command;
#X obj 48 62 route load update;
#X obj 48 440 append display x y c s;
#X msg 48 412 \$1 \$2 \$3;
#X obj 48 156 t b b b;
#X obj 48 507 f \$6;
#X obj 81 332 / \$6;
#X obj 81 306 f 256;
#X floatatom 215 358 5 0 0 0 - - -, f 5;
#X obj 304 251 moses \$6;
#X obj 304 397 set sample y;
#X obj 304 367 * -100;
#X connect 0 0 19 0;
#X connect 2 0 17 4;
#X connect 3 0 4 0;
#X connect 4 0 2 0;
#X connect 5 0 18 0;
#X connect 6 0 9 0;
#X connect 6 1 7 0;
#X connect 7 0 8 1;
#X connect 8 0 25 1;
#X connect 9 0 24 0;
#X connect 10 0 13 0;
#X connect 10 1 8 0;
#X connect 10 2 11 0;
#X connect 11 0 9 1;
#X connect 12 0 9 1;
#X connect 13 0 26 0;
#X connect 14 0 20 0;
#X connect 14 1 1 1;
#X connect 14 2 7 1;
#X connect 15 0 16 0;
#X connect 16 0 0 0;
#X connect 16 1 6 0;
#X connect 17 0 14 0;
#X connect 18 0 17 0;
#X connect 19 0 5 0;
#X connect 19 1 22 0;
#X connect 19 2 3 0;
#X connect 20 0 1 0;
#X connect 21 0 17 3;
#X connect 21 0 23 0;
#X connect 22 0 21 0;
#X connect 24 0 10 0;
#X connect 24 1 12 0;
#X connect 26 0 25 0;
