#N struct display float x float y array v sample;
#N struct sample float w;
#N canvas 48 581 450 345 16;
#X obj 22 21 cnv 15 400 172 empty empty OpenDA 128 36 0 32 -66577 -191407
0;
#X obj 22 193 cnv 15 400 128 empty empty empty 20 12 0 14 -99865 -66577
0;
#N canvas 244 287 804 715 buffer_out 1;
#N canvas 3 90 520 190 display-struct 0;
#X obj 19 35 struct display float x float y array v sample;
#X obj 26 94 plot v 852 3 0 0 4;
#X restore 27 112 pd display-struct;
#N canvas 129 389 450 300 display-elem 0;
#X obj 18 60 struct sample float w;
#X restore 31 150 pd display-elem;
#X obj 462 37 loadbang;
#X msg 462 65 bang;
#X obj 462 377 setsize display v;
#X msg 462 345 64;
#X obj 462 93 t b b b;
#X obj 495 218 pointer;
#X msg 462 248 0 64;
#X obj 462 276 append display x y;
#X obj 462 309 t b p;
#X msg 529 132 \; pd-dataDisplay clear;
#N canvas 3 93 450 300 dataDisplay 0;
#X scalar display 0 64 \; 0 \; 0 \; 0 \; 0 \; 0 \; 0 \; 0 \; 0 \; 0
\; 0 \; 0 \; 0 \; 0 \; 0 \; 0 \; 0 \; 0 \; 0 \; 0 \; 0 \; 0 \; 0 \;
0 \; 0 \; 0 \; 0 \; 0 \; 0 \; 0 \; 0 \; 0 \; 0 \; 0 \; 0 \; 0 \; 0
\; 0 \; 0 \; 0 \; 0 \; 0 \; 0 \; 0 \; 0 \; 0 \; 0 \; 0 \; 0 \; 0 \;
0 \; 0 \; 0 \; 0 \; 0 \; 0 \; 0 \; 0 \; 0 \; 0 \; 0 \; 0 \; 0 \; 0
\; 0 \; \;;
#X coords 0 -1 255 126 400 128 2 100 100;
#X restore 16 196 pd dataDisplay;
#X obj 37 369 openda_core;
#X obj 144 404 t b b;
#X obj 428 495 pointer;
#X obj 261 575 element display v;
#X obj 144 432 f 0;
#X obj 144 497 t f f f;
#X obj 185 432 + 1;
#X obj 144 542 tabread openda_master;
#X msg 495 184 traverse pd-dataDisplay \, bang;
#X msg 428 456 traverse pd-dataDisplay \, next;
#X obj 144 580 * 100;
#X floatatom 252 500 5 0 0 0 - - -, f 5;
#X obj 144 464 moses 64;
#X msg 215 400 0;
#X obj 144 610 set sample w;
#X obj 76 444 dac~;
#X connect 2 0 3 0;
#X connect 3 0 6 0;
#X connect 5 0 4 0;
#X connect 6 0 8 0;
#X connect 6 1 21 0;
#X connect 6 2 11 0;
#X connect 7 0 9 2;
#X connect 8 0 9 0;
#X connect 9 0 10 0;
#X connect 10 0 5 0;
#X connect 10 1 4 1;
#X connect 13 0 28 0;
#X connect 13 0 28 1;
#X connect 13 1 14 0;
#X connect 14 0 17 0;
#X connect 14 1 22 0;
#X connect 15 0 16 1;
#X connect 16 0 27 1;
#X connect 17 0 25 0;
#X connect 18 0 20 0;
#X connect 18 1 16 0;
#X connect 18 2 19 0;
#X connect 19 0 17 1;
#X connect 20 0 23 0;
#X connect 21 0 7 0;
#X connect 22 0 15 0;
#X connect 23 0 27 0;
#X connect 25 0 18 0;
#X connect 25 1 26 0;
#X connect 26 0 17 1;
#X coords 0 -1 1 1 400 128 2 16 196;
#X restore 22 193 pd buffer_out;
#X coords 0 345 1 344 85 60 0;
