#N canvas 200 131 1141 772 16;
#X obj 53 40 mod 16;
#X obj 568 383 r \$0-synth;
#X obj 33 301 cnv 32 598 48 empty empty empty 20 12 1 16 -33289 -66577
0;
#X obj 39 301 cnv 42 592 42 empty empty Sequencer 6 20 1 16 -128992
-1 0;
#X obj 136 311 tgl 24 1 empty \$0-tgl-0 empty 17 7 0 10 -166441 -16853
-262144 0 1;
#X obj 73 403 spigot;
#X obj 73 437 s \$0-synth;
#X obj 161 311 tgl 24 1 empty \$0-tgl-1 empty 17 7 0 10 -166441 -16853
-262144 0 1;
#X obj 98 473 spigot;
#X obj 98 507 s \$0-synth;
#X obj 186 311 tgl 24 1 empty \$0-tgl-2 empty 17 7 0 10 -166441 -16853
-262144 0 1;
#X obj 123 543 spigot;
#X obj 123 577 s \$0-synth;
#X obj 211 311 tgl 24 1 empty \$0-tgl-3 empty 17 7 0 10 -166441 -16853
-262144 0 1;
#X obj 148 613 spigot;
#X obj 148 647 s \$0-synth;
#X obj 236 311 tgl 24 1 empty \$0-tgl-4 empty 17 7 0 10 -166441 -16853
-262144 0 1;
#X obj 183 403 spigot;
#X obj 183 437 s \$0-synth;
#X obj 261 311 tgl 24 1 empty \$0-tgl-5 empty 17 7 0 10 -166441 -16853
-262144 0 1;
#X obj 208 473 spigot;
#X obj 208 507 s \$0-synth;
#X obj 286 311 tgl 24 1 empty \$0-tgl-6 empty 17 7 0 10 -166441 -16853
-262144 0 1;
#X obj 233 543 spigot;
#X obj 233 577 s \$0-synth;
#X obj 311 311 tgl 24 1 empty \$0-tgl-7 empty 17 7 0 10 -166441 -16853
-262144 0 1;
#X obj 258 613 spigot;
#X obj 258 647 s \$0-synth;
#X obj 336 311 tgl 24 1 empty \$0-tgl-8 empty 17 7 0 10 -166441 -16853
-262144 0 1;
#X obj 293 403 spigot;
#X obj 293 437 s \$0-synth;
#X obj 361 311 tgl 24 1 empty \$0-tgl-9 empty 17 7 0 10 -166441 -16853
-262144 0 1;
#X obj 318 473 spigot;
#X obj 318 507 s \$0-synth;
#X obj 386 311 tgl 24 1 empty \$0-tgl-10 empty 17 7 0 10 -166441 -16853
-262144 0 1;
#X obj 343 543 spigot;
#X obj 343 577 s \$0-synth;
#X obj 411 311 tgl 24 1 empty \$0-tgl-11 empty 17 7 0 10 -166441 -16853
-262144 0 1;
#X obj 368 613 spigot;
#X obj 368 647 s \$0-synth;
#X obj 436 311 tgl 24 1 empty \$0-tgl-12 empty 17 7 0 10 -166441 -16853
-262144 0 1;
#X obj 403 403 spigot;
#X obj 403 437 s \$0-synth;
#X obj 461 311 tgl 24 1 empty \$0-tgl-13 empty 17 7 0 10 -166441 -16853
-262144 0 1;
#X obj 428 473 spigot;
#X obj 428 507 s \$0-synth;
#X obj 486 311 tgl 24 1 empty \$0-tgl-14 empty 17 7 0 10 -166441 -16853
-262144 0 1;
#X obj 453 543 spigot;
#X obj 453 577 s \$0-synth;
#X obj 511 311 tgl 24 1 empty \$0-tgl-15 empty 17 7 0 10 -166441 -16853
-262144 0 1;
#X obj 478 613 spigot;
#X obj 478 647 s \$0-synth;
#X obj 53 228 route 0 1 2 3 4 5 6 7 8 9 10 11 12 13 14 15;
#X obj 889 361 f \$0;
#X msg 889 391 \; \$1-tgl-0 color 1 \; \$1-tgl-1 color 1 \; \$1-tgl-2
color 1 \; \$1-tgl-3 color 1 \; \$1-tgl-4 color 1 \; \$1-tgl-5 color
1 \; \$1-tgl-6 color 1 \; \$1-tgl-7 color 1 \; \$1-tgl-8 color 1 \;
\$1-tgl-9 color 1 \; \$1-tgl-10 color 1 \; \$1-tgl-11 color 1 \; \$1-tgl-12
color 1 \; \$1-tgl-13 color 1 \; \$1-tgl-14 color 1 \; \$1-tgl-15 color
1 \;;
#X obj 201 102 t b f;
#X obj 201 136 pack \$0 0;
#X msg 201 170 \; \$1-tgl-\$2 color 16;
#X obj 53 12 inlet metro;
#X obj 53 68 t f b f;
#X obj 568 449 outlet;
#X obj 889 330 r \$0-clear;
#X obj 86 161 s \$0-clear;
#X obj 601 311 tgl 24 1 empty empty Active -56 12 1 16 -166441 -16853
-1 0 1;
#X obj 568 411 spigot;
#X obj 663 649 r \$0-done;
#X obj 663 683 outlet;
#X obj 472 266 s \$0-done;
#X obj 422 64 inlet active;
#X obj 86 125 delay 200;
#X obj 491 134 list prepend \$0;
#X msg 491 171 \; \$1-tgl-\$2 \$3;
#X obj 422 97 route float list bang;
#X obj 689 142 route clear;
#X msg 689 186 0 0 \, 1 0 \, 2 0 \, 3 0 \, 4 0 \, 5 0 \, 6 0 \, 7 0
\, 8 0 \, 9 0 \, 10 0 \, 11 0 \, 12 0 \, 13 0 \, 14 0 \, 15 0;
#X connect 0 0 59 0;
#X connect 1 0 64 0;
#X connect 4 0 5 1;
#X connect 5 0 6 0;
#X connect 7 0 8 1;
#X connect 8 0 9 0;
#X connect 10 0 11 1;
#X connect 11 0 12 0;
#X connect 13 0 14 1;
#X connect 14 0 15 0;
#X connect 16 0 17 1;
#X connect 17 0 18 0;
#X connect 19 0 20 1;
#X connect 20 0 21 0;
#X connect 22 0 23 1;
#X connect 23 0 24 0;
#X connect 25 0 26 1;
#X connect 26 0 27 0;
#X connect 28 0 29 1;
#X connect 29 0 30 0;
#X connect 31 0 32 1;
#X connect 32 0 33 0;
#X connect 34 0 35 1;
#X connect 35 0 36 0;
#X connect 37 0 38 1;
#X connect 38 0 39 0;
#X connect 40 0 41 1;
#X connect 41 0 42 0;
#X connect 43 0 44 1;
#X connect 44 0 45 0;
#X connect 46 0 47 1;
#X connect 47 0 48 0;
#X connect 49 0 50 1;
#X connect 50 0 51 0;
#X connect 52 0 5 0;
#X connect 52 1 8 0;
#X connect 52 2 11 0;
#X connect 52 3 14 0;
#X connect 52 4 17 0;
#X connect 52 5 20 0;
#X connect 52 6 23 0;
#X connect 52 7 26 0;
#X connect 52 8 29 0;
#X connect 52 9 32 0;
#X connect 52 10 35 0;
#X connect 52 11 38 0;
#X connect 52 12 41 0;
#X connect 52 13 44 0;
#X connect 52 14 47 0;
#X connect 52 15 50 0;
#X connect 52 15 67 0;
#X connect 53 0 54 0;
#X connect 55 0 56 0;
#X connect 55 1 56 1;
#X connect 56 0 57 0;
#X connect 58 0 0 0;
#X connect 59 0 52 0;
#X connect 59 1 69 0;
#X connect 59 2 55 0;
#X connect 61 0 53 0;
#X connect 63 0 64 1;
#X connect 64 0 60 0;
#X connect 65 0 66 0;
#X connect 68 0 72 0;
#X connect 69 0 62 0;
#X connect 70 0 71 0;
#X connect 72 0 63 0;
#X connect 72 1 70 0;
#X connect 72 2 63 0;
#X connect 72 3 73 0;
#X connect 73 0 74 0;
#X connect 74 0 72 0;
#X coords 0 -1 1 1 600 50 2 32 300;
