#N canvas 420 158 963 847 16;
#X obj 48 349 oggread~;
#X obj 48 201 loadbang;
#X msg 48 274 open \$1;
#X obj 341 173 inlet;
#X obj 47 487 *~ 0.5;
#X obj 73 453 *~ 0.5;
#X obj 47 531 +~;
#X obj 47 575 outlet~;
#X obj 48 238 symbol \$1;
#X obj 408 642 delay 1 1 sec;
#X obj 408 786 s \$0-feedback;
#X obj 363 206 r \$0-feedback;
#X obj 66 312 r \$0-action;
#X obj 341 243 route play pause stop segment loop;
#X obj 370 425 f 0;
#X obj 543 283 unpack;
#X obj 341 574 f -1;
#X obj 341 609 moses 0;
#X obj 341 278 t b b b b;
#X msg 408 750 play;
#X msg 428 316 stop;
#X obj 460 497 s \$0-action;
#X msg 370 463 seek \$1;
#X obj 475 277 t b;
#X msg 399 352 start;
#X obj 99 407 send \$0-position;
#X obj 543 341 send \$0-origin;
#X obj 600 312 send \$0-length;
#X obj 397 388 r \$0-origin;
#X obj 378 538 r \$0-length;
#X obj 455 719 outlet;
#X obj 408 683 t b b;
#X obj 17 17 cnv 32 518 94 empty empty empty 20 12 0 14 -33289 -66577
0;
#X obj 23 17 cnv 48 512 88 empty empty \$1 20 20 1 20 -128992 -1 0
;
#X obj 134 72 nbx 5 24 0 1e+37 0 1 empty \$0-position Position 4 -12
1 16 -162280 -1 -1 0 256;
#X obj 234 72 nbx 5 24 0 1e+37 0 1 empty \$0-origin Start 18 -12 1
16 -162280 -1 -1 0 256;
#X obj 334 72 nbx 5 24 0 1e+37 0 1 empty \$0-length Length 4 -12 1
16 -162280 -1 -1 0 256;
#X connect 0 0 4 0;
#X connect 0 1 5 0;
#X connect 0 2 25 0;
#X connect 1 0 8 0;
#X connect 2 0 0 0;
#X connect 3 0 13 0;
#X connect 4 0 6 0;
#X connect 5 0 6 1;
#X connect 6 0 7 0;
#X connect 8 0 2 0;
#X connect 9 0 31 0;
#X connect 11 0 13 0;
#X connect 12 0 0 0;
#X connect 13 0 18 0;
#X connect 13 2 23 0;
#X connect 13 3 15 0;
#X connect 14 0 22 0;
#X connect 15 0 26 0;
#X connect 15 1 27 0;
#X connect 16 0 17 0;
#X connect 17 1 9 0;
#X connect 18 0 16 0;
#X connect 18 1 14 0;
#X connect 18 2 24 0;
#X connect 18 3 20 0;
#X connect 19 0 10 0;
#X connect 20 0 21 0;
#X connect 20 0 9 0;
#X connect 22 0 21 0;
#X connect 23 0 20 0;
#X connect 24 0 21 0;
#X connect 28 0 14 1;
#X connect 29 0 16 1;
#X connect 31 0 19 0;
#X connect 31 1 30 0;
#X coords 0 -1 1 1 520 96 2 16 16;
